<?xml version="1.0" encoding="iso-8859-1"?>
<!-- Generator: Adobe Illustrator 19.0.0, SVG Export Plug-In . SVG Version: 6.00 Build 0)  -->
<svg version="1.1" id="Layer_1" xmlns="http://www.w3.org/2000/svg" xmlns:xlink="http://www.w3.org/1999/xlink" x="0px" y="0px"
	 viewBox="0 0 512 512" style="enable-background:new 0 0 512 512;" xml:space="preserve" fill="#555555">
<g>
	<g>
		<path d="M509.177,294.718C389.389,204.003,263.006,32.55,261.743,30.829c-1.342-1.83-3.475-2.91-5.744-2.91
			c-2.269,0-4.402,1.081-5.744,2.91c-1.261,1.721-127.61,173.148-247.432,263.889C1.045,296.064,0,298.166,0,300.396v34.294
			c0,2.704,1.53,5.174,3.952,6.378c2.422,1.205,5.316,0.933,7.471-0.7c26.768-20.271,53.832-44.482,79.777-69.93
			c0.502,39.474-3.202,142.666-51.757,202.01c-1.743,2.13-2.102,5.073-0.924,7.56c1.178,2.487,3.685,4.072,6.437,4.072h420.086
			c2.752,0,5.258-1.585,6.437-4.072c1.179-2.487,0.819-5.431-0.924-7.56c-49.325-60.285-52.352-166.01-51.723-203.95
			c26.544,26.156,54.299,51.086,81.745,71.87c1.262,0.956,2.777,1.444,4.301,1.444c1.081,0,2.165-0.245,3.17-0.745
			c2.422-1.204,3.952-3.674,3.952-6.378v-34.294C512,298.166,510.955,296.064,509.177,294.718z M185.726,469.836l70.271-268.545
			l70.271,268.545H185.726z M173.611,459.861l-37.19-51.961c30.526-18.579,57.019-60.132,77.763-103.088L173.611,459.861z
			 M297.804,304.785c20.746,42.966,47.243,84.531,77.776,103.114l-37.194,51.967L297.804,304.785z M450.842,469.836H348.769
			l43.09-60.204c1.229-1.718,1.632-3.89,1.102-5.934c-0.53-2.043-1.939-3.747-3.848-4.649
			c-72.15-34.143-125.71-225.853-126.243-227.785c-0.026-0.098-0.064-0.19-0.095-0.286c-0.017-0.055-0.036-0.11-0.054-0.164
			c-0.06-0.174-0.127-0.344-0.199-0.51c-0.01-0.023-0.018-0.047-0.03-0.07c-0.006-0.014-0.014-0.026-0.02-0.04
			c-0.081-0.179-0.17-0.353-0.265-0.522c-0.013-0.024-0.027-0.048-0.042-0.072c-0.101-0.175-0.208-0.345-0.323-0.51
			c-0.016-0.023-0.033-0.046-0.049-0.068c-0.114-0.16-0.233-0.314-0.359-0.463c-0.026-0.032-0.055-0.062-0.082-0.094
			c-0.119-0.135-0.241-0.267-0.369-0.392c-0.045-0.044-0.091-0.086-0.135-0.128c-0.117-0.109-0.236-0.214-0.36-0.314
			c-0.043-0.035-0.084-0.07-0.128-0.104c-0.014-0.011-0.029-0.02-0.044-0.032c-0.006-0.005-0.013-0.009-0.02-0.014
			c-0.115-0.086-0.231-0.171-0.351-0.25c-0.075-0.051-0.153-0.099-0.231-0.147c-0.1-0.061-0.201-0.122-0.303-0.178
			c-0.024-0.013-0.049-0.024-0.072-0.038c-0.075-0.04-0.152-0.078-0.229-0.115c-0.135-0.066-0.273-0.127-0.412-0.184
			c-0.072-0.029-0.146-0.058-0.22-0.085c-0.046-0.017-0.091-0.038-0.136-0.054c-0.007-0.002-0.013-0.005-0.02-0.008
			c-0.104-0.036-0.211-0.064-0.316-0.095c-0.039-0.011-0.075-0.027-0.114-0.038c-0.029-0.008-0.057-0.011-0.086-0.019
			c-0.161-0.043-0.325-0.077-0.488-0.109c-0.034-0.006-0.067-0.016-0.101-0.022c-0.01-0.002-0.02-0.005-0.031-0.007
			c-0.032-0.005-0.062-0.007-0.094-0.012c-0.144-0.022-0.291-0.038-0.438-0.052c-0.097-0.009-0.193-0.018-0.29-0.023
			c-0.101-0.005-0.203-0.006-0.303-0.007c-0.021,0-0.041-0.005-0.062-0.005c-0.02,0-0.04,0.005-0.06,0.005
			c-0.102,0.001-0.203,0.002-0.304,0.007c-0.094,0.005-0.186,0.014-0.28,0.023c-0.15,0.013-0.299,0.029-0.447,0.053
			c-0.029,0.004-0.057,0.005-0.086,0.01c-0.027,0.005-0.053,0.013-0.08,0.017c-0.017,0.003-0.034,0.008-0.05,0.011
			c-0.168,0.032-0.334,0.067-0.499,0.111c-0.026,0.007-0.054,0.01-0.08,0.018c-0.037,0.01-0.071,0.025-0.108,0.036
			c-0.105,0.031-0.211,0.058-0.313,0.094c-0.026,0.009-0.051,0.021-0.077,0.031c-0.032,0.011-0.062,0.025-0.094,0.037
			c-0.071,0.026-0.14,0.054-0.211,0.082c-0.142,0.058-0.283,0.121-0.421,0.188c-0.069,0.034-0.137,0.067-0.205,0.102
			c-0.04,0.02-0.079,0.04-0.118,0.061c-0.096,0.053-0.188,0.11-0.282,0.167c-0.076,0.047-0.151,0.094-0.225,0.142
			c-0.114,0.075-0.225,0.155-0.335,0.237c-0.037,0.027-0.075,0.053-0.112,0.081c-0.034,0.026-0.065,0.055-0.099,0.082
			c-0.125,0.102-0.245,0.208-0.364,0.317c-0.045,0.042-0.09,0.082-0.132,0.125c-0.068,0.067-0.138,0.132-0.205,0.202
			c-0.021,0.022-0.04,0.046-0.06,0.069c-0.037,0.04-0.071,0.081-0.107,0.122c-0.027,0.032-0.055,0.062-0.081,0.094
			c-0.126,0.149-0.245,0.303-0.359,0.463c-0.016,0.023-0.034,0.046-0.049,0.069c-0.011,0.016-0.023,0.032-0.034,0.048
			c-0.021,0.032-0.045,0.06-0.066,0.092c-0.079,0.119-0.151,0.244-0.223,0.369c-0.014,0.024-0.029,0.048-0.042,0.072
			c-0.085,0.152-0.165,0.307-0.24,0.466c-0.029,0.061-0.055,0.122-0.082,0.184c-0.069,0.161-0.133,0.324-0.191,0.491
			c-0.019,0.054-0.037,0.109-0.054,0.164c-0.031,0.096-0.067,0.188-0.095,0.286c-0.532,1.932-54.093,193.643-126.243,227.785
			c-1.908,0.903-3.318,2.606-3.848,4.649c-0.53,2.044-0.126,4.218,1.102,5.934l43.09,60.204H59.156
			c22.113-32.419,36.545-76.899,42.955-132.491c4.496-38.995,3.456-70.809,2.955-80.726C176.724,184.093,237.524,105.63,256,81.216
			c18.312,24.197,78.207,101.492,149.037,173.476c-0.407,6.86-2.002,40.57,2.85,82.652
			C414.297,392.937,428.728,437.417,450.842,469.836z M497.754,320.138C381.491,227.584,262.966,66.79,261.743,65.124
			c-1.342-1.83-3.475-2.91-5.744-2.91c-2.269,0-4.402,1.081-5.744,2.91c-1.221,1.667-119.746,162.461-236.009,255.014v-16.215
			C120.184,222.672,230.002,81.277,256,46.922c25.998,34.356,135.816,175.749,241.754,257.001V320.138z"/>
	</g>
</g>
<g>
	<g>
		<path d="M95.241,327.568H7.123c-3.934,0-7.123,3.189-7.123,7.123s3.189,7.123,7.123,7.123h88.118c3.934,0,7.123-3.189,7.123-7.123
			S99.174,327.568,95.241,327.568z"/>
	</g>
</g>
<g>
	<g>
		<path d="M504.877,327.568h-88.118c-3.934,0-7.123,3.189-7.123,7.123s3.189,7.123,7.123,7.123h88.118
			c3.934,0,7.123-3.189,7.123-7.123S508.811,327.568,504.877,327.568z"/>
	</g>
</g>
<g>
</g>
<g>
</g>
<g>
</g>
<g>
</g>
<g>
</g>
<g>
</g>
<g>
</g>
<g>
</g>
<g>
</g>
<g>
</g>
<g>
</g>
<g>
</g>
<g>
</g>
<g>
</g>
<g>
</g>
</svg>
