<?xml version="1.0" encoding="iso-8859-1"?>
<svg version="1.1" id="Layer_1" xmlns="http://www.w3.org/2000/svg" xmlns:xlink="http://www.w3.org/1999/xlink" x="0px" y="0px"
	 viewBox="0 0 512 512" style="enable-background:new 0 0 512 512;" xml:space="preserve"  fill="#555555">

			<path d="M327.772,67.981H101.441c-37.233,0-67.526,30.292-67.526,67.526v251.999H0v56.514h15.237v-41.276h18.678h15.237h213.086
				c3.669,23.355,23.929,41.276,48.299,41.276s44.628-17.921,48.298-41.276H512V252.21C512,150.626,429.355,67.981,327.772,67.981z
				 M49.153,264.287h60.48v15.009h-60.48V264.287z M49.153,294.535h60.48v15.009h-60.48V294.535z M310.537,428.782
				c-18.56,0-33.659-15.099-33.659-33.658c0-18.559,15.098-33.659,33.659-33.659c18.559,0,33.658,15.099,33.658,33.659
				C344.195,413.683,329.096,428.782,310.537,428.782z M496.763,387.506H358.835c-3.67-23.355-23.928-41.277-48.298-41.277
				s-44.63,17.922-48.299,41.277H49.153v-62.725h60.48v40.492h112.446v-40.492h274.684V387.506z M124.87,350.036V151.64h81.971
				v198.395H124.87z M496.763,309.543H222.078v-15.009h274.684V309.543z M496.763,279.296H222.078v-15.009h71.503V249.05h-71.503
				V136.403H109.633V249.05h-60.48V135.506c0-28.831,23.457-52.288,52.288-52.288h226.33c92.125,0,167.259,74.103,168.951,165.832
				H316.19v15.238h180.572V279.296z"/>
			<circle cx="310.54" cy="395.118" r="19.311"/>
			<path d="M384.468,167.382c0-17.082-13.898-30.98-30.979-30.98h-64.805c-17.081,0-30.979,13.898-30.979,30.98
				c0,17.082,13.898,30.979,30.979,30.979h64.805C370.571,198.361,384.468,184.464,384.468,167.382z M272.943,167.383
				c0-8.68,7.062-15.742,15.741-15.742h64.805c8.68,0,15.741,7.062,15.741,15.742c0,8.679-7.061,15.741-15.741,15.741h-64.805
				C280.004,183.124,272.943,176.063,272.943,167.383z"/>
</svg>
