<?xml version="1.0" encoding="iso-8859-1"?>
<!-- Generator: Adobe Illustrator 19.0.0, SVG Export Plug-In . SVG Version: 6.00 Build 0)  -->
<svg xmlns="http://www.w3.org/2000/svg" xmlns:xlink="http://www.w3.org/1999/xlink" version="1.1" id="Capa_1" x="0px" y="0px" viewBox="0 0 496 496" style="enable-background:new 0 0 496 496;" xml:space="preserve" width="512px" height="512px">
<g>
	<g>
		<g>
			<path d="M480,304h-32v-32c0-22.448-8.848-43.984-24.008-60.168c10-3.528,19.2-9.208,26.92-16.928     c13.6-13.6,21.088-31.688,21.08-50.952v-0.928c0-1.896-0.232-3.752-0.416-5.624C487.08,122.36,496,101.664,496,80     c0-44.112-35.888-80-80-80c-18.392,0-36.064,6.36-50.272,17.872c-60.288-24.128-88.032,4.56-91.624,8.712l-0.64,0.632     C267.36,33.328,264,41.456,264,50.088c0,10.944,4.44,21.664,12.184,29.408c0.816,0.816,1.712,1.536,2.592,2.28     C269.224,95.224,264,111.32,264,128v16c0,26.088,12.616,49.232,32,63.848V208c0.064,0,0.12-0.016,0.184-0.016     c9.184,6.88,19.832,11.896,31.448,14.32c-0.84,12.336-3.992,24.536-9.52,35.584L315.056,264H224c-17.648,0-32,14.352-32,32     c0,2.736,0.472,5.4,1.144,8H16c-8.824,0-16,7.176-16,16v32c0,8.824,7.176,16,16,16h32v-16H16v-32h48v80c0,13.232,10.768,24,24,24     s24-10.768,24-24v-44c0-2.2,1.792-4,4-4s4,1.8,4,4v84c0,13.232,10.768,24,24,24s24-10.768,24-24v-84c0-2.2,1.792-4,4-4s4,1.8,4,4     v28c0,13.232,10.768,24,24,24s24-10.768,24-24v-64h256v32H240v16h240c8.824,0,16-7.176,16-16v-32     C496,311.176,488.824,304,480,304z M284.792,38.52l1.456-1.52c0.28-0.344,28.472-34.048,101.64,9.856l8.232-13.72     c-4.72-2.832-9.272-5.344-13.688-7.624C392.456,19.336,404.04,16,416,16c35.288,0,64,28.712,64,64     c0,14.2-4.8,27.872-13.328,38.976c-1.296-2.816-2.776-5.568-4.544-8.216c-5.648-8.456-13.44-15.344-22.536-19.912l-4.008-2.008     l-7.168,14.312l4,2c6.616,3.328,12.288,8.336,16.56,14.736c4.584,6.872,7,14.872,7.008,23.168v0.928     c0,14.96-5.816,29.032-16.392,39.608c-8.664,8.672-19.68,14.152-31.608,15.84c-0.336-33.088-13.416-64.168-36.912-87.664     l-0.712-0.712c-14.552-14.552-32.704-25.232-52.504-30.872l-19.28-5.496c-4.176-1.184-8.016-3.448-11.088-6.512     c-4.76-4.76-7.488-11.352-7.488-18.088C280,45.784,281.744,41.568,284.792,38.52z M315.48,201.208     C323.04,195.352,328,186.288,328,176h-16c0,7.104-4.688,13.08-11.12,15.16C288.088,179.448,280,162.672,280,144     c0-8.824,7.176-16,16-16c8.824,0,16,7.176,16,16h16c0-17.648-14.352-32-32-32c-5.368,0-10.36,1.456-14.808,3.8     c1.84-9.48,5.792-18.44,11.632-26.208c0.464,0.152,0.904,0.352,1.376,0.488l19.288,5.496c17.184,4.896,32.944,14.168,45.576,26.8     l0.712,0.712c17.544,17.544,28.336,39.952,31.304,64.136C378.952,200.424,362.056,208,344,208     C333.744,208,324.08,205.512,315.48,201.208z M358.032,222.648l-16.648,16.648c1.104-5.048,1.768-10.168,2.144-15.328     c0.16,0.008,0.312,0.032,0.472,0.032C348.768,224,353.44,223.464,358.032,222.648z M208,384c0,4.416-3.592,8-8,8s-8-3.584-8-8     v-28c0-11.032-8.976-20-20-20s-20,8.968-20,20v84c0,4.416-3.592,8-8,8s-8-3.584-8-8v-84c0-11.032-8.976-20-20-20s-20,8.968-20,20     v44c0,4.416-3.592,8-8,8s-8-3.584-8-8v-80h128V384z M210.168,304c-1.392-2.416-2.168-5.16-2.168-8c0-8.824,7.176-16,16-16h99.312     l58.056-58.064c3.832-3.824,8.928-5.936,14.344-5.936c11.184,0,20.288,9.104,20.288,20.28c0,5.416-2.112,10.504-5.944,14.344     L356.688,304H210.168z M432,304h-52.688l42.056-42.064c3.168-3.168,5.6-6.848,7.384-10.816C430.808,257.84,432,264.848,432,272     V304z" fill="#555555"/>
			<path d="M464,416c0,35.288-28.712,64-64,64H96c-35.288,0-64-28.712-64-64v-32H16v32c0,44.112,35.888,80,80,80h304     c44.112,0,80-35.888,80-80v-32h-16V416z" fill="#555555"/>
			<path d="M109.656,111.032C100.976,119.712,96,131.728,96,144c0,12.272,4.976,24.288,13.656,32.968l12.688,12.688l11.312-11.312     l-12.688-12.688C115.272,159.952,112,152.064,112,144c0-8.064,3.272-15.952,8.968-21.656l1.376-1.376     C131.024,112.288,136,100.272,136,88c0-12.272-4.976-24.288-13.656-32.968l-12.688-12.688L98.344,53.656l12.688,12.688     C116.728,72.048,120,79.936,120,88s-3.272,15.952-8.968,21.656L109.656,111.032z" fill="#555555"/>
			<path d="M181.656,167.032C172.976,175.712,168,187.728,168,200c0,12.272,4.976,24.288,13.656,32.968l12.688,12.688l11.312-11.312     l-12.688-12.688C187.272,215.952,184,208.064,184,200c0-8.064,3.272-15.952,8.968-21.656l1.376-1.376     C203.024,168.288,208,156.272,208,144c0-12.272-4.976-24.288-13.656-32.968l-12.688-12.688l-11.312,11.312l12.688,12.688     C188.728,128.048,192,135.936,192,144c0,8.064-3.272,15.952-8.968,21.656L181.656,167.032z" fill="#555555"/>
			<path d="M29.656,175.032C20.976,183.712,16,195.728,16,208c0,12.272,4.976,24.288,13.656,32.968l12.688,12.688l11.312-11.312     l-12.688-12.688C35.272,223.952,32,216.064,32,208c0-8.064,3.272-15.952,8.968-21.656l1.376-1.376     C51.024,176.288,56,164.272,56,152c0-12.272-4.976-24.288-13.656-32.968l-12.688-12.688l-11.312,11.312l12.688,12.688     C36.728,136.048,40,143.936,40,152c0,8.064-3.272,15.952-8.968,21.656L29.656,175.032z" fill="#555555"/>
		</g>
	</g>
</g>
<g>
</g>
<g>
</g>
<g>
</g>
<g>
</g>
<g>
</g>
<g>
</g>
<g>
</g>
<g>
</g>
<g>
</g>
<g>
</g>
<g>
</g>
<g>
</g>
<g>
</g>
<g>
</g>
<g>
</g>
</svg>
