<?xml version="1.0" encoding="iso-8859-1"?>
<!-- Generator: Adobe Illustrator 19.0.0, SVG Export Plug-In . SVG Version: 6.00 Build 0)  -->
<svg xmlns="http://www.w3.org/2000/svg" xmlns:xlink="http://www.w3.org/1999/xlink" version="1.1" id="Capa_1" x="0px" y="0px" viewBox="0 0 496 496" style="enable-background:new 0 0 496 496;" xml:space="preserve" width="512px" height="512px">
<g>
	<g>
		<g>
			<path d="M268.776,264c-15.2,0-30.12,5.232-41.992,14.728c-5.728,4.584-12.072,8.264-18.784,11.072V288c0-13.232-10.768-24-24-24     h-8v-72c0-13.232-10.768-24-24-24h-36c-19.848,0-36-16.152-36-36c0-19.848,16.152-36,36-36h92V80h-92c-28.672,0-52,23.328-52,52     s23.328,52,52,52h36c4.408,0,8,3.584,8,8v72h-8c-13.232,0-24,10.768-24,24v1.8c-6.704-2.808-13.056-6.488-18.784-11.072     C97.344,269.232,82.432,264,67.224,264C30.16,264,0,294.16,0,331.224v107.328C0,470.224,25.768,496,57.44,496     c21.896,0,41.584-12.168,51.376-31.752l11.32-22.64c1.352-2.704,3.392-5.016,5.904-6.688c2.872-1.912,6.2-2.92,9.64-2.92h64.632     c3.44,0,6.776,1.008,9.648,2.92c2.504,1.672,4.544,3.984,5.896,6.688l11.32,22.64c9.8,19.584,29.488,31.752,51.384,31.752     c31.672,0,57.44-25.776,57.44-57.448V331.224C336,294.16,305.84,264,268.776,264z M144,288c0-4.416,3.592-8,8-8h32     c4.408,0,8,3.584,8,8v6.608c-4.752,0.896-9.584,1.392-14.448,1.392h-19.104c-4.864,0-9.696-0.496-14.448-1.392V288z M320,438.552     C320,461.408,301.408,480,278.56,480c-15.8,0-30-8.776-37.064-22.904l-11.32-22.64c-2.6-5.184-6.52-9.632-11.336-12.84     c-5.512-3.68-11.912-5.616-18.52-5.616h-64.64c-6.608,0-13.008,1.936-18.512,5.608c-4.824,3.208-8.744,7.656-11.344,12.84     l-11.32,22.64C87.448,471.224,73.24,480,57.44,480C34.592,480,16,461.408,16,438.552V331.224C16,302.976,38.984,280,67.224,280     c11.584,0,22.952,3.984,32,11.224C115.976,304.624,137,312,158.448,312h19.104c21.448,0,42.48-7.376,59.224-20.776     c9.048-7.24,20.416-11.224,32-11.224c28.24,0,51.224,22.976,51.224,51.224V438.552z" fill="#555555"/>
			<path d="M72,336c-22.056,0-40,17.944-40,40c0,22.056,17.944,40,40,40c22.056,0,40-17.944,40-40C112,353.944,94.056,336,72,336z      M72,400c-13.232,0-24-10.768-24-24s10.768-24,24-24s24,10.768,24,24S85.232,400,72,400z" fill="#555555"/>
			<path d="M224,320h-16v16c0,4.416-3.592,8-8,8h-8v-16h-16v16h-16v-16h-16v16h-8c-4.408,0-8-3.584-8-8v-16h-16v16     c0,13.232,10.768,24,24,24h64c13.232,0,24-10.768,24-24V320z" fill="#555555"/>
			<path d="M408,184v16h72v8c0,13.232-10.768,24-24,24H248c-13.232,0-24-10.768-24-24v-8h72v-16h-88v24c0,22.056,17.944,40,40,40     h208c22.056,0,40-17.944,40-40v-24H408z" fill="#555555"/>
			<path d="M312,184v16c0,8.824,7.176,16,16,16h48c8.824,0,16-7.176,16-16v-16h-16v16h-48v-16H312z" fill="#555555"/>
			<path d="M240,24c0-4.416,3.592-8,8-8h208c4.408,0,8,3.584,8,8v144h16V24c0-13.232-10.768-24-24-24H248c-13.232,0-24,10.768-24,24     v144h16V24z" fill="#555555"/>
			<polygon points="448,168 448,32 256,32 256,168 272,168 272,48 432,48 432,168    " fill="#555555"/>
			<rect x="224" y="368" width="32" height="16" fill="#555555"/>
			<rect x="272" y="368" width="32" height="16" fill="#555555"/>
			<rect x="256" y="336" width="16" height="32" fill="#555555"/>
			<rect x="256" y="384" width="16" height="32" fill="#555555"/>
		</g>
	</g>
</g>
<g>
</g>
<g>
</g>
<g>
</g>
<g>
</g>
<g>
</g>
<g>
</g>
<g>
</g>
<g>
</g>
<g>
</g>
<g>
</g>
<g>
</g>
<g>
</g>
<g>
</g>
<g>
</g>
<g>
</g>
</svg>
