<?xml version="1.0" encoding="iso-8859-1"?>
<!-- Generator: Adobe Illustrator 19.0.0, SVG Export Plug-In . SVG Version: 6.00 Build 0)  -->
<svg xmlns="http://www.w3.org/2000/svg" xmlns:xlink="http://www.w3.org/1999/xlink" version="1.1" id="Layer_1" x="0px" y="0px" viewBox="0 0 191.711 191.711" style="enable-background:new 0 0 191.711 191.711;" xml:space="preserve" width="512px" height="512px">
<g>
	<g>
		<g>
			<path d="M191.675,123.685l-2.023-31.603c-0.301-4.747-2.437-8.856-6.009-11.57c-2.895-2.2-6.436-3.178-10.181-2.965l9.084-9.176     c1.36-1.371,1.347-3.589-0.027-4.949c-1.371-1.357-3.585-1.35-4.949,0.027l-9.214,9.307l-5.371-23.543     c-2.088-9.174-11.112-16.358-20.542-16.358H49.269c-9.427,0-18.454,7.184-20.545,16.358L23.481,72.21l-8.678-8.764     c-1.364-1.371-3.575-1.381-4.953-0.024c-1.371,1.36-1.384,3.579-0.024,4.952l9.165,9.255c-4.015-0.403-7.856,0.549-10.946,2.896     c-3.558,2.707-5.684,6.809-5.988,11.553v0.004l-2.02,31.603c-0.301,4.689,1.265,9.119,4.406,12.465     c2.455,2.617,5.643,4.283,9.164,4.905v14.301c0,1.934,1.566,3.5,3.5,3.5h31.5c1.934,0,3.5-1.566,3.5-3.5v-14h87.5v14     c0,1.934,1.566,3.5,3.5,3.5h31.5c1.934,0,3.5-1.566,3.5-3.5v-14.3c3.525-0.621,6.715-2.283,9.17-4.899     C190.414,132.811,191.976,128.381,191.675,123.685z M35.546,50.772c1.35-5.916,7.636-10.917,13.723-10.917h93.174     c6.088,0,12.37,4.997,13.72,10.917l5.493,24.083H30.057L35.546,50.772z M151.256,81.856c-16.855,3.238-40.725,7.256-55.4,7.256     c-14.671,0-38.533-4.016-55.398-7.256H151.256z M45.106,151.856h-24.5v-10.5h24.5V151.856z M171.106,151.856h-24.5v-10.5h24.5     V151.856z M182.17,131.368c-1.808,1.924-4.334,2.987-7.109,2.987h-0.455h-31.5h-94.5h-31.5h-0.455     c-2.768,0-5.294-1.063-7.106-2.994c-1.801-1.921-2.697-4.491-2.522-7.232l2.02-31.603c0.174-2.687,1.323-4.97,3.24-6.429     c1.931-1.473,4.46-1.969,7.096-1.425c2.081,0.468,51.253,11.44,76.477,11.44s74.396-10.972,76.436-11.43     c2.662-0.561,5.182-0.058,7.12,1.408c1.928,1.463,3.083,3.75,3.254,6.436l2.023,31.603     C184.864,126.877,183.972,129.447,182.17,131.368z" fill="#555555"/>
			<path d="M158.856,92.356c-8.685,0-15.75,7.065-15.75,15.75s7.065,15.75,15.75,15.75s15.75-7.065,15.75-15.75     S167.541,92.356,158.856,92.356z M158.856,116.856c-4.826,0-8.75-3.924-8.75-8.75c0-4.826,3.924-8.75,8.75-8.75     c4.826,0,8.75,3.924,8.75,8.75S163.682,116.856,158.856,116.856z" fill="#555555"/>
			<path d="M32.856,92.356c-8.685,0-15.75,7.065-15.75,15.75s7.065,15.75,15.75,15.75s15.75-7.065,15.75-15.75     S41.541,92.356,32.856,92.356z M32.856,116.856c-4.826,0-8.75-3.924-8.75-8.75c0-4.826,3.924-8.75,8.75-8.75     c4.826,0,8.75,3.924,8.75,8.75S37.682,116.856,32.856,116.856z" fill="#555555"/>
			<path d="M49.632,44.381l-10.5,10.5c-1.367,1.367-1.367,3.582,0,4.949c0.684,0.683,1.579,1.025,2.474,1.025     c0.895,0,1.791-0.342,2.474-1.026l10.5-10.5c1.367-1.367,1.367-3.582,0-4.949C53.214,43.013,50.999,43.014,49.632,44.381z" fill="#555555"/>
		</g>
	</g>
</g>
<g>
</g>
<g>
</g>
<g>
</g>
<g>
</g>
<g>
</g>
<g>
</g>
<g>
</g>
<g>
</g>
<g>
</g>
<g>
</g>
<g>
</g>
<g>
</g>
<g>
</g>
<g>
</g>
<g>
</g>
</svg>
