<?xml version="1.0" encoding="iso-8859-1"?>
<!-- Generator: Adobe Illustrator 19.0.0, SVG Export Plug-In . SVG Version: 6.00 Build 0)  -->
<svg xmlns="http://www.w3.org/2000/svg" xmlns:xlink="http://www.w3.org/1999/xlink" version="1.1" id="Capa_1" x="0px" y="0px" viewBox="0 0 512 512" style="enable-background:new 0 0 512 512;" xml:space="preserve" width="512px" height="512px">
<g>
	<g>
		<path d="M142,252c-5.52,0-10,4.48-10,10c0,5.52,4.48,10,10,10s10-4.48,10-10C152,256.48,147.52,252,142,252z" fill="#555555"/>
	</g>
</g>
<g>
	<g>
		<path d="M397.198,114.811C362.209,46.115,291.148,0,210,0C94.206,0,0,94.206,0,210c0,81.119,46.091,152.196,114.811,187.197    C149.938,466.175,221.163,512,302,512c115.794,0,210-94.206,210-210C512,221.192,466.202,149.951,397.198,114.811z M20,210    c0-104.767,85.234-190,190-190c63.557,0,121.279,30.837,156.434,82.044C345.767,95.37,324.197,92,302,92    C186.206,92,92,186.206,92,302c0,22.197,3.371,43.768,10.045,64.437C50.835,331.283,20,273.561,20,210z M302,492    c-107.427,0-190-87.045-190-190c0-104.767,85.234-190,190-190c103.182,0,190,82.774,190,190C492,406.767,406.766,492,302,492z" fill="#555555"/>
	</g>
</g>
<g>
	<g>
		<path d="M208.259,419.011C172.505,390.318,152,347.669,152,302c0-5.522-4.477-10-10-10s-10,4.478-10,10    c0,51.767,23.233,100.101,63.741,132.608c4.289,3.441,10.585,2.786,14.058-1.54C213.256,428.761,212.566,422.467,208.259,419.011z    " fill="#555555"/>
	</g>
</g>
<g>
	<g>
		<path d="M358.415,322c8.321-7.335,13.585-18.062,13.585-30c0-22.056-17.944-40-40-40c-22.056,0-40,17.944-40,40    c0,11.938,5.264,22.665,13.585,30C297.264,329.335,292,340.062,292,352c0,22.056,17.944,40,40,40c22.056,0,40-17.944,40-40    C372,340.062,366.736,329.335,358.415,322z M332,372c-11.028,0-20-8.972-20-20s8.972-20,20-20s20,8.972,20,20S343.028,372,332,372    z M332,312c-11.028,0-20-8.972-20-20s8.972-20,20-20s20,8.972,20,20S343.028,312,332,312z" fill="#555555"/>
	</g>
</g>
<g>
	<g>
		<path d="M322,192c-71.682,0-130,58.317-130,130s58.318,130,130,130s130-58.317,130-130S393.682,192,322,192z M322,432    c-60.654,0-110-49.346-110-110s49.346-110,110-110s110,49.346,110,110S382.654,432,322,432z" fill="#555555"/>
	</g>
</g>
<g>
</g>
<g>
</g>
<g>
</g>
<g>
</g>
<g>
</g>
<g>
</g>
<g>
</g>
<g>
</g>
<g>
</g>
<g>
</g>
<g>
</g>
<g>
</g>
<g>
</g>
<g>
</g>
<g>
</g>
</svg>
