<?xml version="1.0" encoding="iso-8859-1"?>
<!-- Generator: Adobe Illustrator 19.0.0, SVG Export Plug-In . SVG Version: 6.00 Build 0)  -->
<svg xmlns="http://www.w3.org/2000/svg" xmlns:xlink="http://www.w3.org/1999/xlink" version="1.1" id="Capa_1" x="0px" y="0px" viewBox="0 0 512.004 512.004" style="enable-background:new 0 0 512.004 512.004;" xml:space="preserve" width="512px" height="512px">
<g>
	<g>
		<path d="M480.333,46.481H31.667C14.206,46.481,0,60.688,0,78.148v216.667c0,17.461,14.206,31.666,31.667,31.666h68.889    c-4.996,20.492,0.216,40.452,5.302,59.883c5.88,22.465,11.433,43.684,0.59,64.498c-1.615,3.1-1.494,6.818,0.319,9.807    c1.813,2.988,5.055,4.814,8.55,4.814h32.68c1.007,0.326,10.156-1.459,11.939-4.881c14.407-27.657,7.295-54.829,1.021-78.803    c-5.301-20.255-9.945-38.028-3.613-55.317h65.236c-4.996,20.493,0.216,40.452,5.302,59.883    c5.879,22.465,11.433,43.684,0.59,64.498c-1.615,3.1-1.494,6.818,0.319,9.807c1.813,2.988,5.055,4.814,8.55,4.814h32.679    c1.007,0.326,10.156-1.459,11.939-4.881c14.407-27.657,7.295-54.829,1.021-78.803c-5.301-20.255-9.945-38.028-3.613-55.317h65.236    c-4.996,20.493,0.216,40.452,5.302,59.883c5.879,22.465,11.433,43.684,0.59,64.498c-1.615,3.1-1.494,6.818,0.319,9.807    c1.813,2.988,5.055,4.814,8.55,4.814h32.68c1.007,0.326,10.156-1.459,11.939-4.881c14.407-27.656,7.295-54.829,1.021-78.803    c-5.301-20.254-9.945-38.028-3.613-55.317h78.945c17.462,0,31.668-14.206,31.668-31.667V78.148    C512,60.688,497.794,46.481,480.333,46.481z M59,66.481h392v11.335c0,6.323-4.579,11.666-10,11.666H68.999    c-5.42,0-9.999-5.343-9.999-11.666V66.481z M144.832,445.482h-14.897c6.167-22.552,0.435-44.45-4.729-64.183    c-5.25-20.059-9.854-37.685-3.791-54.818h15.012c-5.205,20.668,0.053,40.793,5.18,60.381    C146.934,407.216,151.993,426.547,144.832,445.482z M266.854,445.482h-14.897c6.166-22.552,0.435-44.45-4.73-64.182    c-5.25-20.06-9.854-37.686-3.791-54.819h15.011c-5.203,20.668,0.056,40.793,5.182,60.381    C268.956,407.216,274.015,426.547,266.854,445.482z M388.877,445.482H373.98c6.166-22.552,0.435-44.45-4.73-64.182    c-5.25-20.06-9.854-37.686-3.791-54.819h15.012c-5.204,20.668,0.055,40.793,5.181,60.382    C390.979,407.216,396.038,426.547,388.877,445.482z M452,306.481H60v-23.999h392V306.481z M452,262.482H60v-0.832    c0-24.355,17.944-44.168,40.001-44.168h311.998c22.057,0,40.001,19.813,40.001,44.168V262.482z M492,294.815    c0,6.434-5.234,11.667-11.668,11.667H472v-44.831c0-35.382-26.917-64.168-60.001-64.168H100.001    C66.916,197.482,40,226.269,40,261.65v44.831h-8.333c-6.433,0-11.667-5.233-11.667-11.666V78.148    c0-6.434,5.233-11.667,11.667-11.667H39v11.335c0,17.461,13.458,31.666,29.999,31.666H441c16.542,0,30-14.205,30-31.666V66.481    h9.333c6.433,0,11.667,5.233,11.667,11.667V294.815z" fill="#555555"/>
	</g>
</g>
<g>
	<g>
		<path d="M462,132.482h-42c-5.523,0-10,4.478-10,10c0,5.522,4.477,10,10,10h42c5.523,0,10-4.478,10-10    C472,136.96,467.523,132.482,462,132.482z" fill="#555555"/>
	</g>
</g>
<g>
	<g>
		<circle cx="392.5" cy="142.481" r="10" fill="#555555"/>
	</g>
</g>
<g>
</g>
<g>
</g>
<g>
</g>
<g>
</g>
<g>
</g>
<g>
</g>
<g>
</g>
<g>
</g>
<g>
</g>
<g>
</g>
<g>
</g>
<g>
</g>
<g>
</g>
<g>
</g>
<g>
</g>
</svg>
