<svg viewBox="0 0 48 48" xmlns="http://www.w3.org/2000/svg" xmlns:xlink="http://www.w3.org/1999/xlink" width="48" height="48" >
<defs>



 <path fill="#555555" id="i-465" d="M25,34h2v4h-2V34z M25,45h2v-4h-2V45z M17,31h2v-4h-2V31z M17,45h2v-4h-2V45z M17,38h2v-4h-2V38z M25,31h2v-4h-2V31z M33,38 h2v-4h-2V38z M41,31h2v-4h-2V31z M48,23v1H12v-1c0-8.471,4.407-12.33,15-12.912V10c0-2.131,1.022-2.746,1.964-2.926 C28.6,2.221,25.194,2,18,2h-5C5.393,2,2,4.467,2,10v38H0V10C0,0,9.785,0,13,0h5c6.685,0,12.48,0.02,12.954,7.061 C31.917,7.219,33,7.807,33,10v0.109C45.3,11.006,48,17.492,48,23z M45.966,22C45.505,15.273,40.27,12,30,12 c-12.657,0-15.706,3.799-15.979,10H45.966z M41,38h2v-4h-2V38z M33,31h2v-4h-2V31z M33,45h2v-4h-2V45z M41,45h2v-4h-2V45z"/>
</defs>

<use x="0" y="0" xlink:href="#i-465"/>

</svg>